<svg width="25" height="28" viewBox="0 0 25 28" fill="none" xmlns="http://www.w3.org/2000/svg">
<path d="M20.5517 0.470115C22.2953 1.30237 23.4847 3.05997 23.9388 4.90523C23.9525 4.93772 23.9637 4.97323 23.9721 5.01186L23.9795 5.00937V5.02417C23.9877 5.06009 23.9926 5.09495 23.9945 5.12866C24.534 8.05809 23.6167 10.9424 22.5069 13.6389C21.4874 16.1059 20.2168 18.4742 18.7146 20.6846C17.3356 22.7026 15.7792 24.5923 14.0555 26.3142C13.3561 27.005 12.5533 27.9523 11.4747 27.9671C10.337 27.9918 9.49974 27.0839 8.79052 26.3142C5.59905 22.8555 3.16113 18.7209 1.64419 14.2655C0.885728 12.0353 0.368592 9.73117 0.0878607 7.38754C-0.104218 5.7544 -0.104218 3.52424 1.39794 2.45357C3.20545 1.17074 5.55473 2.83842 6.92883 4.05711C8.16676 5.14594 9.14562 6.50812 9.81385 8.01352C10.3013 6.76951 10.9741 5.58583 11.7308 4.53077C12.8045 3.04071 14.1096 1.61973 15.73 0.741483C17.242 -0.0775555 18.9658 -0.289716 20.5517 0.470115Z" fill="#EE7B35"/>
</svg>